<svg width="228" height="76" viewBox="0 0 228 76" fill="none" xmlns="http://www.w3.org/2000/svg">
<path d="M121.953 10.252C121.953 4.58999 126.543 1.05755e-06 132.205 1.05755e-06H160.032C165.694 1.05755e-06 170.284 4.58999 170.284 10.252H121.953Z" fill="white"/>
<path d="M121.953 17.4977H160.032C165.694 17.4977 170.284 22.0877 170.284 27.7498H132.205C126.543 27.7498 121.953 23.1598 121.953 17.4977Z" fill="white"/>
<path d="M121.953 34.9955H170.284C170.284 40.6576 165.694 45.2476 160.032 45.2476H132.205C126.543 45.2476 121.953 40.6576 121.953 34.9955Z" fill="white"/>
<path d="M115.432 45.6485C109.829 45.6485 105.288 41.1068 105.288 35.5044V0C110.89 0 115.432 4.54167 115.432 10.1441V45.6485Z" fill="white"/>
<path d="M202.4 10.5488L222.665 45.6485C227.766 42.703 229.514 36.1793 226.569 31.0776L211.712 5.34423C209.864 2.14454 206.61 0.264039 203.181 0.0332244C199.208 -0.281651 195.219 1.65347 193.093 5.33512L178.236 31.0684C175.29 36.1702 177.038 42.6939 182.14 45.6394L202.4 10.5488Z" fill="white"/>
<path d="M73.1664 35.0997L93.4313 1.88089e-07C98.5331 2.94552 100.281 9.46915 97.3355 14.5709L82.4784 40.3043C80.6311 43.504 77.3763 45.3845 73.9476 45.6153C69.9743 45.9301 65.9853 43.995 63.8597 40.3134L49.0026 14.5801C46.0571 9.47827 47.8051 2.95463 52.9069 0.00911477L73.1664 35.0997Z" fill="white"/>
<path d="M25.5947 10.5491L45.8595 45.6488C50.9613 42.7033 52.7093 36.1796 49.7638 31.0779L34.9067 5.34453C33.0593 2.14485 29.8046 0.264343 26.3758 0.0335281C22.4025 -0.281347 18.4136 1.65377 16.288 5.33542L1.43084 31.0687C-1.51467 36.1705 0.233327 42.6942 5.33511 45.6397L25.5947 10.5491Z" fill="white"/>
<path d="M2.42636 63.4318V70.8372H0.941035V63.4318H2.42636ZM25.6114 70.8372H24.126L20.7628 65.7552V70.8372H19.2775V63.4212H20.7628L24.126 68.5137V63.4212H25.6114V70.8372ZM48.7967 70.8372H47.3114L43.9482 65.7552V70.8372H42.4629V63.4212H43.9482L47.3114 68.5137V63.4212H48.7967V70.8372ZM69.0857 70.9114C68.3925 70.9114 67.7559 70.7487 67.176 70.4234C66.596 70.098 66.1362 69.6489 65.7967 69.076C65.4572 68.496 65.2875 67.8418 65.2875 67.1132C65.2875 66.3918 65.4572 65.7446 65.7967 65.1717C66.1362 64.5917 66.596 64.1391 67.176 63.8137C67.7559 63.4884 68.3925 63.3257 69.0857 63.3257C69.7859 63.3257 70.4224 63.4884 70.9953 63.8137C71.5753 64.1391 72.0315 64.5917 72.364 65.1717C72.7035 65.7446 72.8732 66.3918 72.8732 67.1132C72.8732 67.8418 72.7035 68.496 72.364 69.076C72.0315 69.6489 71.5753 70.098 70.9953 70.4234C70.4154 70.7487 69.7788 70.9114 69.0857 70.9114ZM69.0857 69.5852C69.5312 69.5852 69.9238 69.4862 70.2633 69.2882C70.6028 69.0831 70.868 68.7931 71.059 68.4182C71.25 68.0433 71.3455 67.6084 71.3455 67.1132C71.3455 66.6181 71.25 66.1867 71.059 65.8189C70.868 65.444 70.6028 65.1576 70.2633 64.9595C69.9238 64.7615 69.5312 64.6625 69.0857 64.6625C68.6401 64.6625 68.244 64.7615 67.8974 64.9595C67.5579 65.1576 67.2927 65.444 67.1017 65.8189C66.9107 66.1867 66.8152 66.6181 66.8152 67.1132C66.8152 67.6084 66.9107 68.0433 67.1017 68.4182C67.2927 68.7931 67.5579 69.0831 67.8974 69.2882C68.244 69.4862 68.6401 69.5852 69.0857 69.5852ZM96.014 63.4318L93.298 70.8372H91.4944L88.7784 63.4318H90.3698L92.4068 69.32L94.4332 63.4318H96.014ZM116.829 69.4261H113.88L113.392 70.8372H111.832L114.495 63.4212H116.224L118.887 70.8372H117.317L116.829 69.4261ZM116.426 68.2378L115.354 65.1399L114.283 68.2378H116.426ZM140.306 63.4318V64.6306H138.332V70.8372H136.847V64.6306H134.874V63.4318H140.306ZM158.259 63.4318V70.8372H156.773V63.4318H158.259ZM178.547 70.9114C177.854 70.9114 177.217 70.7487 176.637 70.4234C176.058 70.098 175.598 69.6489 175.258 69.076C174.919 68.496 174.749 67.8418 174.749 67.1132C174.749 66.3918 174.919 65.7446 175.258 65.1717C175.598 64.5917 176.058 64.1391 176.637 63.8137C177.217 63.4884 177.854 63.3257 178.547 63.3257C179.247 63.3257 179.884 63.4884 180.457 63.8137C181.037 64.1391 181.493 64.5917 181.826 65.1717C182.165 65.7446 182.335 66.3918 182.335 67.1132C182.335 67.8418 182.165 68.496 181.826 69.076C181.493 69.6489 181.037 70.098 180.457 70.4234C179.877 70.7487 179.24 70.9114 178.547 70.9114ZM178.547 69.5852C178.993 69.5852 179.385 69.4862 179.725 69.2882C180.064 69.0831 180.33 68.7931 180.521 68.4182C180.712 68.0433 180.807 67.6084 180.807 67.1132C180.807 66.6181 180.712 66.1867 180.521 65.8189C180.33 65.444 180.064 65.1576 179.725 64.9595C179.385 64.7615 178.993 64.6625 178.547 64.6625C178.102 64.6625 177.706 64.7615 177.359 64.9595C177.019 65.1576 176.754 65.444 176.563 65.8189C176.372 66.1867 176.277 66.6181 176.277 67.1132C176.277 67.6084 176.372 68.0433 176.563 68.4182C176.754 68.7931 177.019 69.0831 177.359 69.2882C177.706 69.4862 178.102 69.5852 178.547 69.5852ZM205.157 70.8372H203.672L200.309 65.7552V70.8372H198.823V63.4212H200.309L203.672 68.5137V63.4212H205.157V70.8372ZM224.566 70.9114C224.049 70.9114 223.583 70.823 223.165 70.6462C222.755 70.4694 222.43 70.2147 222.189 69.8823C221.949 69.5499 221.825 69.1573 221.818 68.7047H223.409C223.43 69.0088 223.537 69.2493 223.728 69.4261C223.926 69.6029 224.194 69.6913 224.534 69.6913C224.88 69.6913 225.153 69.61 225.351 69.4473C225.549 69.2776 225.648 69.0583 225.648 68.7895C225.648 68.5703 225.581 68.3899 225.446 68.2485C225.312 68.107 225.142 67.9974 224.937 67.9196C224.739 67.8347 224.463 67.7427 224.109 67.6437C223.629 67.5023 223.236 67.3643 222.932 67.23C222.635 67.0885 222.377 66.8798 222.157 66.604C221.945 66.3211 221.839 65.9462 221.839 65.4794C221.839 65.0409 221.949 64.6589 222.168 64.3336C222.387 64.0082 222.695 63.7607 223.091 63.5909C223.487 63.4141 223.94 63.3257 224.449 63.3257C225.213 63.3257 225.832 63.5131 226.306 63.888C226.787 64.2558 227.052 64.7721 227.101 65.437H225.467C225.453 65.1823 225.344 64.9737 225.139 64.811C224.941 64.6413 224.675 64.5564 224.343 64.5564C224.053 64.5564 223.819 64.6306 223.643 64.7792C223.473 64.9277 223.388 65.1434 223.388 65.4263C223.388 65.6244 223.452 65.7906 223.579 65.925C223.713 66.0523 223.876 66.1584 224.067 66.2433C224.265 66.3211 224.541 66.413 224.895 66.5191C225.376 66.6606 225.768 66.802 226.072 66.9435C226.376 67.085 226.638 67.2971 226.857 67.5801C227.077 67.863 227.186 68.2343 227.186 68.6941C227.186 69.0901 227.084 69.4579 226.879 69.7974C226.673 70.1369 226.373 70.4092 225.977 70.6144C225.581 70.8124 225.11 70.9114 224.566 70.9114Z" fill="white"/>
</svg>
